<svg xmlns="http://www.w3.org/2000/svg" viewBox="0 0 512 512" role="img" aria-label="SF">
  <defs>
    <linearGradient id="bg" x1="0%" y1="0%" x2="100%" y2="100%">
      <stop offset="0%" stop-color="#2f8fff" />
      <stop offset="100%" stop-color="#1b74e4" />
    </linearGradient>
  </defs>
  <rect width="512" height="512" rx="102" fill="url(#bg)" />
  <path fill="#ffffff" d="M182.48 363.30Q157.32 363.30 136.15 356.94Q114.99 350.57 99.89 339.32L111.73 309.43Q121.80 316.53 132.75 321.42Q143.70 326.30 156.13 328.82Q168.56 331.33 182.48 331.33Q205.86 331.33 216.22 323.64Q226.58 315.94 226.58 303.51Q226.58 292.56 219.48 286.78Q212.37 281.01 194.02 277.16L160.57 270.36Q131.86 264.44 117.65 250.52Q103.44 236.61 103.44 213.23Q103.44 193.69 113.80 179.19Q124.16 164.68 142.81 156.69Q161.46 148.70 186.32 148.70Q208.52 148.70 227.47 155.06Q246.41 161.43 259.14 173.27L247.30 201.68Q234.57 191.03 219.48 185.85Q204.38 180.67 185.73 180.67Q164.72 180.67 153.02 188.81Q141.33 196.95 141.33 211.16Q141.33 222.11 148.58 228.62Q155.84 235.13 173.30 238.68L206.45 245.20Q236.05 251.12 250.26 264.58Q264.47 278.05 264.47 300.84Q264.47 319.49 254.40 333.55Q244.34 347.61 225.99 355.46Q207.64 363.30 182.48 363.30 M312.65 360.34L274.47 360.34L274.47 151.66L412.11 151.66L412.11 181.56L312.65 181.56L312.65 240.76L405.30 240.76L405.30 270.65L312.65 270.65" />
</svg>
